<?xml version="1.0" standalone="no"?>
<!DOCTYPE svg PUBLIC "-//W3C//DTD SVG 20010904//EN"
 "http://www.w3.org/TR/2001/REC-SVG-20010904/DTD/svg10.dtd">
<svg version="1.0" xmlns="http://www.w3.org/2000/svg"
 width="225.000000pt" height="225.000000pt" viewBox="0 0 225.000000 225.000000"
 preserveAspectRatio="xMidYMid meet">

<g transform="translate(0.000000,225.000000) scale(0.100000,-0.100000)"
fill="#000000" stroke="none">
<path d="M475 1610 c-4 -6 -13 -9 -21 -6 -8 3 -14 0 -14 -5 0 -6 -9 -9 -20 -6
-13 3 -20 0 -20 -9 0 -8 -6 -11 -17 -7 -12 5 -15 2 -10 -10 5 -14 2 -15 -20
-6 -23 8 -25 7 -20 -11 4 -17 2 -18 -15 -9 -16 9 -19 7 -16 -8 2 -12 -2 -17
-14 -15 -12 2 -16 -2 -12 -13 4 -10 0 -15 -10 -15 -9 0 -16 -7 -16 -15 0 -8
-7 -15 -15 -15 -9 0 -12 -6 -9 -15 4 -8 1 -15 -6 -15 -7 0 -10 -7 -6 -15 3 -9
-1 -18 -9 -21 -7 -3 -11 -12 -8 -20 3 -8 0 -14 -7 -14 -7 0 -9 -8 -5 -20 4
-12 2 -20 -6 -20 -9 0 -9 -3 0 -14 9 -11 9 -16 0 -21 -8 -6 -8 -10 2 -15 10
-7 10 -11 0 -24 -10 -12 -10 -16 -2 -16 8 0 10 -8 6 -20 -4 -12 -2 -20 5 -20
7 0 10 -7 6 -15 -3 -8 0 -15 5 -15 6 0 9 -9 6 -20 -3 -13 0 -20 9 -20 8 0 11
-6 8 -15 -4 -8 -1 -15 5 -15 6 0 11 -6 11 -14 0 -8 7 -17 16 -20 8 -3 12 -10
9 -16 -3 -5 1 -10 9 -10 9 0 16 -7 16 -16 0 -10 6 -14 15 -10 9 3 15 0 15 -10
0 -10 6 -14 15 -10 9 3 15 0 15 -9 0 -18 12 -19 27 -4 9 9 10 6 6 -12 -5 -19
-3 -22 7 -12 11 10 16 9 26 -5 10 -12 13 -13 14 -3 0 11 3 11 15 1 8 -6 19 -9
25 -5 5 3 13 -1 16 -10 6 -13 8 -14 15 -3 7 11 11 10 19 -2 6 -10 10 -11 10
-2 0 6 7 12 15 12 8 0 15 -6 15 -12 0 -7 5 -5 11 5 8 14 14 16 25 6 11 -9 14
-8 14 5 0 13 5 16 20 11 12 -4 20 -2 20 5 0 7 7 10 15 6 8 -3 15 -1 15 4 0 6
7 10 15 10 8 0 15 7 15 16 0 11 5 14 16 10 13 -5 15 -2 11 14 -4 17 -2 18 14
9 15 -7 19 -6 19 6 0 8 7 15 16 15 10 0 14 6 11 14 -9 22 2 25 31 10 39 -20
148 -18 198 5 51 23 90 72 103 131 6 25 11 48 11 53 0 4 -40 7 -90 7 -83 0
-90 -1 -90 -20 0 -18 7 -20 65 -20 57 0 65 -2 65 -19 0 -24 -44 -78 -79 -95
-72 -36 -180 -21 -181 27 0 4 7 7 16 7 13 0 14 3 4 15 -10 12 -9 16 4 21 12 5
14 10 6 19 -5 6 -7 15 -3 18 11 12 12 56 1 63 -6 4 -5 10 3 16 11 8 11 11 1
15 -10 4 -10 8 -1 19 9 11 9 14 0 14 -8 0 -10 8 -6 20 4 12 2 20 -5 20 -7 0
-10 6 -7 14 3 8 -2 18 -11 21 -14 6 -12 10 13 21 63 28 161 10 213 -38 20 -20
24 -20 38 -6 14 14 13 18 -18 42 -65 49 -153 68 -225 47 -40 -12 -74 -4 -66
15 4 10 0 12 -11 8 -11 -4 -16 -1 -16 10 0 9 -7 16 -15 16 -8 0 -15 7 -15 15
0 9 -6 12 -15 9 -9 -4 -15 0 -15 10 0 10 -6 13 -15 10 -8 -4 -15 -1 -15 6 0 7
-7 10 -15 6 -9 -3 -18 1 -22 9 -4 12 -9 13 -18 5 -9 -8 -15 -8 -20 0 -3 6 -11
7 -17 4 -6 -4 -14 0 -19 7 -7 11 -11 10 -24 -6 -12 -16 -14 -17 -9 -2 7 19
-12 24 -19 5 -4 -10 -8 -10 -15 1 -7 10 -11 10 -17 1z m178 -63 c29 -15 67
-42 86 -61 l34 -35 -28 -33 c-40 -47 -55 -89 -55 -155 0 -59 18 -101 63 -151
l21 -22 -35 -36 c-88 -91 -237 -117 -351 -61 -111 55 -172 152 -172 277 -1 62
4 85 27 132 15 31 47 73 70 94 23 21 41 42 39 47 -1 5 1 6 6 4 4 -3 32 3 62
14 73 26 161 21 233 -14z m155 -144 c-1 -5 4 -34 11 -67 13 -61 9 -125 -13
-177 l-12 -29 -21 22 c-33 36 -43 63 -43 113 0 56 20 107 51 129 26 18 30 19
27 9z"/>
<path d="M520 1479 c0 -11 -30 -52 -70 -94 -38 -40 -72 -85 -76 -99 -7 -28 18
-75 60 -115 34 -32 33 -41 -4 -41 -23 0 -30 -5 -30 -19 0 -15 8 -21 32 -23 24
-2 38 -12 53 -35 27 -43 64 -44 88 -4 10 17 33 35 52 42 22 8 35 20 35 31 0
14 -11 18 -57 20 l-58 3 -3 38 c-2 26 6 59 28 106 19 42 30 79 28 97 l-4 29
-17 -38 c-9 -21 -25 -50 -35 -65 -35 -50 -43 -90 -27 -129 17 -40 13 -53 -14
-46 -25 6 -41 44 -41 98 0 35 7 53 36 91 53 70 68 110 53 145 -13 34 -29 38
-29 8z"/>
<path d="M639 1368 c0 -2 -2 -21 -4 -44 -2 -22 -15 -64 -29 -92 -35 -69 -33
-73 14 -27 52 51 67 93 45 134 -13 27 -23 37 -26 29z"/>
<path d="M1237 1278 c-32 -236 -31 -218 -13 -218 17 0 20 13 41 175 9 66 18
121 20 123 2 2 38 -64 79 -147 42 -83 78 -151 81 -151 2 0 37 68 76 150 40 83
75 147 79 143 4 -5 15 -72 25 -150 16 -125 21 -143 37 -143 10 0 18 2 18 5 0
11 -51 362 -57 390 -5 26 -15 10 -92 -149 l-86 -179 -87 177 c-48 97 -89 176
-91 176 -1 0 -15 -91 -30 -202z"/>
<path d="M1760 1270 c0 -203 1 -210 20 -210 19 0 20 7 20 210 0 203 -1 210
-20 210 -19 0 -20 -7 -20 -210z"/>
<path d="M1860 1460 c0 -17 7 -20 50 -20 l50 0 0 -190 c0 -183 1 -190 20 -190
19 0 20 7 20 190 l0 190 45 0 c38 0 45 3 45 20 0 19 -7 20 -115 20 -108 0
-115 -1 -115 -20z"/>
<path d="M911 824 c0 -11 3 -14 6 -6 3 7 2 16 -1 19 -3 4 -6 -2 -5 -13z"/>
<path d="M901 784 c0 -11 3 -14 6 -6 3 7 2 16 -1 19 -3 4 -6 -2 -5 -13z"/>
<path d="M993 765 c0 -22 2 -30 4 -17 2 12 2 30 0 40 -3 9 -5 -1 -4 -23z"/>
<path d="M1133 765 c0 -22 2 -30 4 -17 2 12 2 30 0 40 -3 9 -5 -1 -4 -23z"/>
<path d="M517 779 c7 -7 15 -10 18 -7 3 3 -2 9 -12 12 -14 6 -15 5 -6 -5z"/>
<path d="M641 764 c0 -11 3 -14 6 -6 3 7 2 16 -1 19 -3 4 -6 -2 -5 -13z"/>
<path d="M1072 740 c0 -19 2 -27 5 -17 2 9 2 25 0 35 -3 9 -5 1 -5 -18z"/>
<path d="M1471 754 c0 -11 3 -14 6 -6 3 7 2 16 -1 19 -3 4 -6 -2 -5 -13z"/>
<path d="M1538 743 c7 -3 16 -2 19 1 4 3 -2 6 -13 5 -11 0 -14 -3 -6 -6z"/>
<path d="M1160 720 c-13 -8 -12 -10 3 -10 9 0 17 5 17 10 0 12 -1 12 -20 0z"/>
<path d="M1488 713 c7 -3 16 -2 19 1 4 3 -2 6 -13 5 -11 0 -14 -3 -6 -6z"/>
<path d="M1568 713 c6 -2 18 -2 25 0 6 3 1 5 -13 5 -14 0 -19 -2 -12 -5z"/>
</g>
</svg>
