<?xml version="1.0" encoding="UTF-8"?>
<svg xmlns="http://www.w3.org/2000/svg" xmlns:xlink="http://www.w3.org/1999/xlink" width="65pt" height="65pt" viewBox="0 0 65 65" version="1.1">
<g id="surface1">
<path style=" stroke:none;fill-rule:nonzero;fill:rgb(0%,0%,0%);fill-opacity:1;" d="M 63.527344 12.03125 C 62.503906 12.484375 61.457031 12.867188 60.382812 13.179688 C 61.652344 11.742188 62.621094 10.050781 63.210938 8.203125 C 63.34375 7.789062 63.207031 7.335938 62.867188 7.0625 C 62.527344 6.792969 62.054688 6.757812 61.679688 6.980469 C 59.402344 8.332031 56.941406 9.304688 54.367188 9.871094 C 51.769531 7.335938 48.242188 5.890625 44.597656 5.890625 C 36.90625 5.890625 30.644531 12.152344 30.644531 19.84375 C 30.644531 20.449219 30.683594 21.054688 30.757812 21.648438 C 21.210938 20.808594 12.335938 16.117188 6.238281 8.640625 C 6.023438 8.375 5.6875 8.230469 5.34375 8.257812 C 5.003906 8.285156 4.695312 8.476562 4.519531 8.773438 C 3.285156 10.894531 2.632812 13.320312 2.632812 15.789062 C 2.632812 19.152344 3.832031 22.34375 5.953125 24.835938 C 5.308594 24.613281 4.683594 24.332031 4.085938 24 C 3.765625 23.824219 3.375 23.824219 3.054688 24.007812 C 2.734375 24.191406 2.535156 24.527344 2.527344 24.894531 C 2.527344 24.957031 2.527344 25.015625 2.527344 25.082031 C 2.527344 30.097656 5.226562 34.617188 9.355469 37.078125 C 9.003906 37.042969 8.648438 36.992188 8.296875 36.925781 C 7.933594 36.855469 7.558594 36.984375 7.3125 37.261719 C 7.070312 37.539062 6.988281 37.921875 7.101562 38.273438 C 8.628906 43.046875 12.5625 46.558594 17.320312 47.628906 C 13.375 50.097656 8.863281 51.394531 4.125 51.394531 C 3.136719 51.394531 2.144531 51.335938 1.171875 51.222656 C 0.6875 51.164062 0.226562 51.449219 0.0625 51.910156 C -0.105469 52.367188 0.0703125 52.878906 0.480469 53.144531 C 6.566406 57.046875 13.605469 59.109375 20.832031 59.109375 C 35.035156 59.109375 43.925781 52.410156 48.878906 46.789062 C 55.054688 39.78125 58.597656 30.507812 58.597656 21.339844 C 58.597656 20.957031 58.59375 20.570312 58.582031 20.1875 C 61.015625 18.351562 63.117188 16.128906 64.824219 13.574219 C 65.082031 13.1875 65.054688 12.671875 64.753906 12.316406 C 64.453125 11.960938 63.953125 11.84375 63.527344 12.03125 Z M 63.527344 12.03125 "/>
</g>
</svg>
