<?xml version="1.0" encoding="UTF-8"?>
<svg xmlns="http://www.w3.org/2000/svg" xmlns:xlink="http://www.w3.org/1999/xlink" width="65pt" height="65pt" viewBox="0 0 65 65" version="1.1">
<g id="surface1">
<path style=" stroke:none;fill-rule:nonzero;fill:rgb(0%,0%,0%);fill-opacity:1;" d="M 48.808594 0.0117188 L 40.371094 0 C 30.886719 0 24.761719 6.285156 24.761719 16.015625 L 24.761719 23.402344 L 16.273438 23.402344 C 15.542969 23.402344 14.949219 23.996094 14.949219 24.730469 L 14.949219 35.429688 C 14.949219 36.164062 15.542969 36.757812 16.273438 36.757812 L 24.761719 36.757812 L 24.761719 63.757812 C 24.761719 64.488281 25.355469 65.082031 26.089844 65.082031 L 37.160156 65.082031 C 37.894531 65.082031 38.488281 64.488281 38.488281 63.757812 L 38.488281 36.757812 L 48.410156 36.757812 C 49.140625 36.757812 49.734375 36.164062 49.734375 35.429688 L 49.738281 24.730469 C 49.738281 24.378906 49.601562 24.039062 49.351562 23.792969 C 49.101562 23.542969 48.765625 23.402344 48.414062 23.402344 L 38.488281 23.402344 L 38.488281 17.140625 C 38.488281 14.132812 39.203125 12.605469 43.125 12.605469 L 48.808594 12.601562 C 49.542969 12.601562 50.136719 12.007812 50.136719 11.277344 L 50.136719 1.339844 C 50.136719 0.609375 49.542969 0.015625 48.808594 0.0117188 Z M 48.808594 0.0117188 "/>
</g>
</svg>
