<?xml version="1.0" encoding="UTF-8"?>
<svg xmlns="http://www.w3.org/2000/svg" xmlns:xlink="http://www.w3.org/1999/xlink" width="65pt" height="65pt" viewBox="0 0 65 65" version="1.1">
<g id="surface1">
<path style=" stroke:none;fill-rule:nonzero;fill:rgb(0%,0%,0%);fill-opacity:1;" d="M 15.128906 20.910156 L 2.082031 20.910156 C 1.503906 20.910156 1.03125 21.378906 1.03125 21.960938 L 1.03125 63.878906 C 1.03125 64.460938 1.503906 64.929688 2.082031 64.929688 L 15.128906 64.929688 C 15.710938 64.929688 16.179688 64.460938 16.179688 63.878906 L 16.179688 21.960938 C 16.179688 21.378906 15.710938 20.910156 15.128906 20.910156 Z M 15.128906 20.910156 "/>
<path style=" stroke:none;fill-rule:nonzero;fill:rgb(0%,0%,0%);fill-opacity:1;" d="M 8.609375 0.0703125 C 3.863281 0.0703125 0 3.929688 0 8.671875 C 0 13.417969 3.863281 17.277344 8.609375 17.277344 C 13.355469 17.277344 17.214844 13.417969 17.214844 8.671875 C 17.214844 3.929688 13.355469 0.0703125 8.609375 0.0703125 Z M 8.609375 0.0703125 "/>
<path style=" stroke:none;fill-rule:nonzero;fill:rgb(0%,0%,0%);fill-opacity:1;" d="M 48.320312 19.871094 C 43.082031 19.871094 39.207031 22.121094 36.855469 24.683594 L 36.855469 21.960938 C 36.855469 21.378906 36.386719 20.910156 35.808594 20.910156 L 23.3125 20.910156 C 22.730469 20.910156 22.261719 21.378906 22.261719 21.960938 L 22.261719 63.878906 C 22.261719 64.460938 22.730469 64.929688 23.3125 64.929688 L 36.332031 64.929688 C 36.910156 64.929688 37.378906 64.460938 37.378906 63.878906 L 37.378906 43.140625 C 37.378906 36.148438 39.277344 33.425781 44.148438 33.425781 C 49.457031 33.425781 49.878906 37.792969 49.878906 43.5 L 49.878906 63.878906 C 49.878906 64.460938 50.347656 64.929688 50.925781 64.929688 L 63.953125 64.929688 C 64.53125 64.929688 65 64.460938 65 63.878906 L 65 40.886719 C 65 30.492188 63.019531 19.871094 48.320312 19.871094 Z M 48.320312 19.871094 "/>
</g>
</svg>
