<?xml version="1.0" encoding="UTF-8"?>
<svg xmlns="http://www.w3.org/2000/svg" xmlns:xlink="http://www.w3.org/1999/xlink" width="20pt" height="20pt" viewBox="0 0 20 20" version="1.1">
<g id="surface1">
<path style=" stroke:none;fill-rule:nonzero;fill:rgb(0%,0%,0%);fill-opacity:1;" d="M 19.484375 3.367188 C 19.171875 3.234375 18.808594 3.308594 18.570312 3.546875 L 15.539062 6.578125 C 13.824219 5.019531 11.546875 4.140625 9.164062 4.140625 C 9.082031 4.140625 0.898438 4.253906 0.00390625 14.109375 C -0.0390625 14.558594 0.277344 14.960938 0.722656 15.019531 C 1.171875 15.082031 1.582031 14.777344 1.660156 14.335938 C 2.09375 11.929688 4.285156 10.183594 6.867188 10.183594 C 8.253906 10.183594 9.554688 10.6875 10.535156 11.585938 L 6.847656 15.269531 C 6.609375 15.511719 6.539062 15.871094 6.667969 16.183594 C 6.796875 16.496094 7.101562 16.699219 7.441406 16.699219 L 19.164062 16.699219 C 19.386719 16.699219 19.597656 16.609375 19.757812 16.453125 C 19.914062 16.296875 20 16.082031 20 15.859375 L 20 4.140625 C 20 3.800781 19.796875 3.496094 19.484375 3.367188 Z M 19.484375 3.367188 "/>
</g>
</svg>
